# xmcd CD database file
# Copyright (C) 1993-1998 Ti Kan
#
# Track frame offsets:
#	183
#	19493
#	37718
#	46443
#	74723
#	93470
#	109125
#	123423
#	142720
#	158343
#	175568
#	190720
#	209635
#	235928
#	249398
#	265030
#	280268
#	297208
#
# Disc length: 4030 seconds
#
# Revision: 1
# Processed by: cddbd v1.4b41PL1 Copyright (c) Steve Scherf et al.
# Submitted via: CDValet v3.31 - Copyright (c) 1997 Greg Leichner
#
DISCID=fa0fbc12
DTITLE=Herzhaft Blues - Never Been Plugged
DYEAR=1900
DGENRE=
TTITLE0=Funky Country Blues
TTITLE1=Mean Dirty Street
TTITLE2=Cisco's Rag
TTITLE3=Graveyard Moan
TTITLE4=Delta Blues Memories
TTITLE5=A Spoonful Blues
TTITLE6=Tomorrow Is On The Way
TTITLE7=Whiskey Blues
TTITLE8=Let's Travel That Way
TTITLE9=Tom Cat Blues
TTITLE10=Wade In The Water
TTITLE11=Moon Without You
TTITLE12=900 Miles
TTITLE13=My Babe
TTITLE14=Mr Blues Is Knocking At My Door
TTITLE15=That's All Right Elvis
TTITLE16=John Henry
TTITLE17=Marseille's Rag
EXTD=
EXTT0=
EXTT1=
EXTT2=
EXTT3=
EXTT4=
EXTT5=
EXTT6=
EXTT7=
EXTT8=
EXTT9=
EXTT10=
EXTT11=
EXTT12=
EXTT13=
EXTT14=
EXTT15=
EXTT16=
EXTT17=
PLAYORDER=
